# xmcd
#
# Track frame offsets:
#	150
#	30076
#	46400
#	61203
#	77952
#	88008
#	104888
#	123234
#	140001
#	157002
#	174607
#
# Disc length: 2585 seconds
#
# Revision: 1
# Processed by: cddbd v1.5.2PL0 Copyright (c) Steve Scherf et al.
# Submitted via: EasyCDDAExtractor 9.0.0.1
#
DISCID=930a170b
DTITLE=Slim Lightfoot - Soulcraft
DYEAR=2009
DGENRE=Blues
TTITLE0=Soulcraft
TTITLE1=Make Perfect Contact With Me
TTITLE2=Heaven Can Wait
TTITLE3=I've Got So Much Soul
TTITLE4=Hold It Light
TTITLE5=Shoot The Dog
TTITLE6=Mad Molly
TTITLE7=Down On The Turnpike
TTITLE8=Made Man
TTITLE9=I've Got My Best Suit On
TTITLE10=I Don't Need Nobody
EXTD=
EXTT0=
EXTT1=
EXTT2=
EXTT3=
EXTT4=
EXTT5=
EXTT6=
EXTT7=
EXTT8=
EXTT9=
EXTT10=
PLAYORDER=
